# xmcd CD database file
#
# Track frame offsets:
#	150
#	12034
#	26325
#	37670
#	47052
#	59182
#	73940
#	86072
#	98537
#	112592
#
# Disc length: 1714 seconds
#
# Revision: 2
# Processed by: cddbd v1.5.2PL0 Copyright (c) Steve Scherf et al.
# Submitted via: CDex 1.70beta2
#
DISCID=7206b00a
DTITLE=Various Artist - A Tribute To A Legend Ernest Tubb
DYEAR=1978
DGENRE=Country
TTITLE0=Waltz Across Texas - Willie Nelson
TTITLE1=Let's Say Goodbye Like We Said Hello - Johnny Paycheck
TTITLE2=Answer The Phone - Loretta Lynn
TTITLE3=Walkin' The Floor Over You - Merle Haggard and Charlie Daniels
TTITLE4=Half A MInd - George Jones
TTITLE5=Rainbow At Midnight - Marty Robbins
TTITLE6=You're The Only Good Thing - Charlie Rich
TTITLE7=The Women Make A Fool Out Of Me - Conway Twitty
TTITLE8=Seaman's Blues - Merle Haggard
TTITLE9=Soldier's Last Letter - Johnny Cash
EXTD=YEAR: 1978
EXTT0=
EXTT1=
EXTT2=
EXTT3=
EXTT4=
EXTT5=
EXTT6=
EXTT7=
EXTT8=
EXTT9=
PLAYORDER=
